<?xml version="1.0" encoding="UTF-8"?>
<svg xmlns="http://www.w3.org/2000/svg" xmlns:xlink="http://www.w3.org/1999/xlink" width="16px" height="14px" viewBox="0 0 15 14" version="1.1">
<g id="surface1">
<path style=" stroke:none;fill-rule:nonzero;fill:rgb(0%,0%,0%);fill-opacity:1;" d="M 7.496094 0 C 7.738281 0 7.957031 0.144531 8.058594 0.371094 L 9.847656 4.234375 L 13.839844 4.851562 C 14.074219 4.890625 14.265625 5.0625 14.339844 5.296875 C 14.414062 5.535156 14.355469 5.792969 14.1875 5.964844 L 11.292969 8.980469 L 11.976562 13.230469 C 12.015625 13.476562 11.917969 13.730469 11.722656 13.875 C 11.53125 14.019531 11.253906 14.039062 11.066406 13.921875 L 7.496094 11.917969 L 3.910156 13.921875 C 3.722656 14.039062 3.464844 14.019531 3.269531 13.875 C 3.078125 13.730469 2.980469 13.476562 2.996094 13.230469 L 3.703125 8.980469 L 0.808594 5.964844 C 0.640625 5.792969 0.582031 5.535156 0.65625 5.296875 C 0.730469 5.0625 0.925781 4.890625 1.160156 4.851562 L 5.148438 4.234375 L 6.933594 0.371094 C 7.042969 0.144531 7.257812 0 7.496094 0 Z M 7.496094 2.160156 L 6.128906 5.117188 C 6.039062 5.3125 5.863281 5.449219 5.660156 5.484375 L 2.578125 5.957031 L 4.816406 8.285156 C 4.957031 8.4375 5.023438 8.652344 4.988281 8.863281 L 4.464844 12.132812 L 7.203125 10.59375 C 7.386719 10.492188 7.609375 10.492188 7.792969 10.59375 L 10.53125 12.132812 L 10.003906 8.863281 C 9.972656 8.652344 10.039062 8.4375 10.183594 8.285156 L 12.417969 5.957031 L 9.339844 5.484375 C 9.132812 5.449219 8.957031 5.3125 8.867188 5.117188 Z M 7.496094 2.160156 "/>
</g>
</svg>
