<?xml version="1.0" encoding="UTF-8"?>
<svg xmlns="http://www.w3.org/2000/svg" xmlns:xlink="http://www.w3.org/1999/xlink" width="20px" height="18px" viewBox="0 0 20 18" version="1.1">
<g id="surface1">
<path style=" stroke:none;fill-rule:nonzero;fill:rgb(0%,0%,0%);fill-opacity:1;" d="M 0 0.84375 C 0 0.375 0.371094 0 0.832031 0 L 2.414062 0 C 3.175781 0 3.855469 0.449219 4.171875 1.125 L 18.441406 1.125 C 19.355469 1.125 20.019531 2.003906 19.78125 2.898438 L 18.359375 8.25 C 18.0625 9.355469 17.074219 10.125 15.945312 10.125 L 5.925781 10.125 L 6.113281 11.125 C 6.191406 11.523438 6.535156 11.8125 6.933594 11.8125 L 16.945312 11.8125 C 17.40625 11.8125 17.777344 12.1875 17.777344 12.65625 C 17.777344 13.125 17.40625 13.5 16.945312 13.5 L 6.933594 13.5 C 5.734375 13.5 4.703125 12.636719 4.480469 11.445312 L 2.6875 1.914062 C 2.664062 1.78125 2.546875 1.6875 2.414062 1.6875 L 0.832031 1.6875 C 0.371094 1.6875 0 1.3125 0 0.84375 Z M 4.445312 16.3125 C 4.445312 15.378906 5.191406 14.625 6.109375 14.625 C 7.03125 14.625 7.777344 15.378906 7.777344 16.3125 C 7.777344 17.246094 7.03125 18 6.109375 18 C 5.191406 18 4.445312 17.246094 4.445312 16.3125 Z M 16.109375 14.625 C 17.03125 14.625 17.777344 15.378906 17.777344 16.3125 C 17.777344 17.246094 17.03125 18 16.109375 18 C 15.191406 18 14.445312 17.246094 14.445312 16.3125 C 14.445312 15.378906 15.191406 14.625 16.109375 14.625 Z M 16.109375 14.625 "/>
</g>
</svg>
